<svg width="54" height="49" viewBox="0 0 54 49" fill="none" xmlns="http://www.w3.org/2000/svg">
<path d="M32.7423 22.7013C35.8673 25.8141 40.7284 27.0246 44.2006 23.566L53.2284 14.5735L52.0131 13.363L42.9853 22.1825C40.2076 24.9494 36.3881 23.7389 33.9576 21.3178C31.527 18.8968 30.3117 15.0923 33.0895 12.3254L42.1173 3.33288L40.902 2.29529L31.8742 11.2878C28.402 14.7464 29.6173 19.5885 32.7423 22.7013Z" fill="#4F4F4F"/>
<path d="M46.4801 7.75979L32.731 21.4552L33.9586 22.678L47.7077 8.9826L46.4801 7.75979Z" fill="#4F4F4F"/>
<path d="M22.3256 22.1825C18.6798 25.8141 11.9089 24.9494 7.22144 20.2803C2.53394 15.6111 1.66589 8.86673 5.31172 5.23515C8.95756 1.60357 15.7284 2.46823 20.4159 7.13741C25.1034 11.8066 25.7978 18.7239 22.3256 22.1825ZM6.527 6.61861C3.74922 9.55846 4.61728 15.0923 8.61033 19.0697C12.6034 23.0472 18.1589 23.9118 21.1103 20.972C24.0617 18.0321 23.1937 12.4983 19.2006 8.52086C15.2076 4.54342 9.47839 3.67876 6.527 6.61861Z" fill="#4F4F4F"/>
<path d="M32.8238 21.2152L7.04413 46.8941L8.27173 48.1169L34.0514 22.438L32.8238 21.2152Z" fill="#4F4F4F"/>
<path d="M21.4979 21.6928L20.2703 22.9156L45.8045 48.3499L47.0321 47.1271L21.4979 21.6928Z" fill="#4F4F4F"/>
<path d="M26.145 38.957H23.02V42.0698H26.145V38.957Z" fill="#4F4F4F"/>
<path d="M31.3533 38.957H28.2283V42.0698H31.3533V38.957Z" fill="#4F4F4F"/>
<path d="M31.3533 44.145H28.2283V47.2577H31.3533V44.145Z" fill="#4F4F4F"/>
<path d="M26.145 44.145H23.02V47.2577H26.145V44.145Z" fill="#4F4F4F"/>
</svg>
