<svg width="20" height="20" viewBox="0 0 20 20" fill="none" xmlns="http://www.w3.org/2000/svg">
<path fill-rule="evenodd" clip-rule="evenodd" d="M4.46133 6V6C4.21778 6 4.03063 6.21561 4.06489 6.45675L4.07015 6.49374L5.65329 17.6366L5.65716 17.6638C5.68456 17.8567 5.84968 18 6.04447 18V18H9.60654H10.0023H10.3981H10.7939H14.0657V18C14.2621 18 14.428 17.8546 14.4538 17.66L14.4575 17.6323L15.9351 6.48949L15.94 6.45271C15.9718 6.21294 15.7852 6 15.5433 6V6H10.7939H10.3981H10.0023H9.60654H4.46133Z" stroke="black"/>
<path d="M4 4H16" stroke="black"/>
<path d="M10 4C10.5523 4 11 3.55228 11 3C11 2.44772 10.5523 2 10 2C9.44772 2 9 2.44772 9 3C9 3.55228 9.44772 4 10 4Z" fill="black"/>
<path d="M8.85714 18L8 6H12L11.1429 18H8.85714Z" stroke="black"/>
</svg>
